<?xml version="1.0" standalone="no"?>
<!DOCTYPE svg PUBLIC "-//W3C//DTD SVG 20010904//EN"
 "http://www.w3.org/TR/2001/REC-SVG-20010904/DTD/svg10.dtd">
<svg version="1.0" xmlns="http://www.w3.org/2000/svg"
 width="128.000000pt" height="128.000000pt" viewBox="0 0 128.000000 128.000000"
 preserveAspectRatio="xMidYMid meet">
<metadata>
Created by potrace 1.11, written by Peter Selinger 2001-2013
</metadata>
<g transform="translate(0.000000,128.000000) scale(0.100000,-0.100000)"
fill="#000000" stroke="none">
<path d="M585 1206 c-5 -3 -32 -7 -59 -11 -39 -5 -58 -15 -89 -46 -22 -21 -46
-39 -53 -39 -24 0 -73 -57 -79 -93 -13 -65 27 -132 72 -121 19 5 22 3 16 -12
-4 -11 -3 -15 4 -11 6 4 13 -5 15 -23 3 -16 0 -31 -6 -33 -5 -2 -2 -6 8 -10
10 -4 15 -3 11 3 -3 6 -2 10 2 10 5 0 14 -9 21 -20 10 -16 10 -20 0 -20 -10 0
-10 -2 1 -9 8 -5 14 -33 17 -72 4 -83 19 -153 39 -183 13 -19 14 -32 5 -70
-10 -47 -4 -153 11 -172 5 -6 12 -37 15 -69 6 -50 13 -66 45 -99 30 -33 40
-38 51 -28 11 9 17 9 26 0 9 -9 18 -7 39 10 16 12 45 33 66 47 20 14 37 32 37
40 0 8 5 15 10 15 13 0 13 -6 0 -31 -15 -27 -1 -47 17 -24 11 16 13 17 13 3 0
-9 4 -28 10 -42 9 -25 10 -25 40 -8 16 9 30 20 30 24 0 4 7 5 16 1 10 -4 17 1
21 16 3 11 8 21 12 21 11 0 10 174 -1 187 -11 14 -23 60 -37 148 -5 28 -16 64
-24 80 -8 17 -20 41 -25 55 -5 14 -22 56 -38 94 -32 80 -33 130 -2 163 12 13
21 36 21 53 0 20 6 32 19 36 60 19 26 138 -49 174 -24 11 -48 20 -53 20 -6 0
-24 10 -40 22 -28 20 -126 35 -155 24z m5 -88 c0 -6 -7 -7 -16 -4 -8 3 -12 2
-9 -4 3 -6 15 -10 26 -10 13 0 18 4 13 12 -4 6 -3 8 3 5 18 -11 23 -47 7 -47
-8 0 -14 -4 -14 -10 0 -14 -17 -12 -32 3 -10 12 -16 11 -32 -4 -10 -10 -24
-16 -29 -12 -6 3 -16 -2 -23 -12 -12 -16 -13 -15 -12 6 2 28 25 59 44 59 7 0
11 6 8 14 -3 9 2 16 13 18 25 5 53 -2 53 -14z m79 6 c-12 -15 -10 -16 21 -10
34 7 34 6 11 -8 -14 -7 -31 -12 -38 -9 -7 3 -13 -1 -13 -8 0 -7 -2 -10 -5 -7
-9 9 13 58 26 58 8 0 7 -5 -2 -16z m41 -54 c10 -19 10 -20 -9 -8 -22 13 -28
28 -11 28 5 0 14 -9 20 -20z m67 -91 c21 -18 15 -33 -20 -49 -29 -14 -32 -19
-31 -60 0 -25 4 -57 8 -72 8 -27 7 -28 -33 -28 -26 0 -41 5 -41 13 0 8 -4 7
-10 -3 -14 -22 -12 -30 8 -24 9 4 3 -3 -15 -15 -18 -11 -38 -30 -45 -41 -19
-29 -33 -25 -53 18 -10 20 -28 50 -39 65 -16 22 -20 42 -19 86 1 75 13 96 65
115 48 18 201 14 225 -5z m13 -144 c5 3 10 2 10 -4 0 -5 -8 -15 -17 -20 -10
-6 -13 -11 -7 -11 15 0 24 -34 13 -51 -9 -16 -39 46 -39 82 0 18 3 19 15 9 8
-6 19 -9 25 -5z m4 -141 c3 -8 2 -12 -4 -9 -6 3 -10 10 -10 16 0 14 7 11 14
-7z m-264 -14 c6 -11 9 -20 8 -20 -2 0 -11 9 -21 20 -9 11 -13 20 -7 20 5 0
14 -9 20 -20z m76 -16 c-10 -14 -20 -23 -23 -21 -2 3 3 17 13 31 9 15 19 24
22 22 2 -3 -3 -17 -12 -32z m73 15 c-17 -17 -23 -19 -30 -8 -11 19 -2 29 27
29 l24 0 -21 -21z m-169 -34 c-7 -9 -15 -13 -17 -11 -7 7 7 26 19 26 6 0 6 -6
-2 -15z m220 -15 c0 -5 -7 -16 -16 -24 -8 -9 -13 -20 -10 -24 3 -5 -1 -9 -9
-9 -8 0 -15 4 -15 8 0 4 -11 10 -25 13 -14 4 -25 12 -25 20 0 20 12 27 27 14
10 -8 17 -8 21 -1 14 21 52 24 52 3z m20 -40 c0 -5 -5 -10 -11 -10 -5 0 -7 5
-4 10 3 6 8 10 11 10 2 0 4 -4 4 -10z m-110 -25 c7 -14 17 -25 22 -25 5 0 6
-5 3 -10 -4 -7 -13 -7 -26 0 -15 8 -19 7 -19 -4 0 -8 5 -18 11 -21 6 -5 4 -12
-8 -22 -13 -10 -15 -16 -5 -19 19 -9 14 -30 -8 -31 -11 -1 -20 3 -20 8 0 6 -4
7 -10 4 -6 -3 -10 5 -10 19 0 14 5 28 10 31 6 3 10 1 10 -5 0 -6 5 -8 10 -5 6
4 10 16 9 28 -4 40 1 77 9 77 5 0 15 -11 22 -25z m210 -32 c0 -5 -5 -15 -10
-23 -8 -13 -11 -13 -27 3 -9 9 -12 17 -6 17 6 0 14 -6 16 -12 3 -8 6 -6 6 5 1
16 21 26 21 10z m-171 -95 c-5 -10 -16 -18 -24 -18 -7 0 -15 -6 -18 -12 -2 -7
-8 -10 -12 -6 -4 4 0 16 8 28 11 15 16 18 20 8 3 -7 6 -1 6 14 1 14 4 34 8 44
6 15 8 13 14 -10 5 -16 4 -37 -2 -48z m151 17 c0 -3 -13 -5 -30 -5 -23 0 -30
4 -30 20 0 20 1 20 30 5 17 -9 30 -18 30 -20z m38 -20 c-3 -3 -9 2 -12 12 -6
14 -5 15 5 6 7 -7 10 -15 7 -18z m-293 -25 c-3 -5 -1 -10 6 -10 7 0 10 -3 6
-6 -9 -9 -28 6 -22 17 4 5 8 9 11 9 3 0 2 -4 -1 -10z m50 -46 c-34 -14 -38
-13 -30 8 4 10 15 13 33 10 l27 -5 -30 -13z"/>
<path d="M585 933 c-36 -9 -41 -24 -6 -17 26 6 33 4 29 -7 -3 -8 -11 -14 -19
-14 -8 -1 -23 -6 -34 -13 -22 -13 -15 -15 45 -13 27 1 31 -1 20 -8 -13 -9 -12
-11 5 -11 11 0 25 4 31 8 13 8 25 61 15 66 -14 8 -67 14 -86 9z"/>
</g>
</svg>
