<?xml version="1.0" encoding="UTF-8" standalone="no"?>
<!-- Generator: Adobe Illustrator 19.2.1, SVG Export Plug-In . SVG Version: 6.00 Build 0)  -->

<svg
   version="1.1"
   id="Warstwa_1"
   x="0px"
   y="0px"
   viewBox="0 0 191.9 282.2"
   style="enable-background:new 0 0 191.9 282.2;"
   xml:space="preserve"
   xmlns="http://www.w3.org/2000/svg"
   xmlns:svg="http://www.w3.org/2000/svg"
   xmlns:i="&amp;ns_ai;"><defs
   id="defs3090">
	
	
</defs>
<style
   type="text/css"
   id="style3078">
	.st0{font-family:'OpenSans';}
	.st1{font-size:50px;}
</style>
<g
   i:extraneous="self"
   id="g3083"
   style="fill:#334155;fill-opacity:1">
		<path
   id="text2175"
   d="m 110.4,2.1 v 5.7 c -9.8,1.4 -14.7,5.7 -14.7,12.9 0,7.8 5.6,12.8 16.8,15 6.4,-6.9 13.9,-12.9 22.6,-18.2 8.7,-5.2 16.4,-7.9 23.2,-7.9 5.1,0 7.6,2.3 7.6,6.9 0,6.1 -5,12.1 -15,18 -10,5.9 -21.9,8.9 -35.8,9.1 -8.2,8.3 -12.3,17.1 -12.3,26.3 0,9.8 4.8,17.8 14.4,24.1 14.4,-7.9 29.6,-11.8 45.5,-11.8 11,0 16.5,2.7 16.5,8.2 0,3.7 -2.9,6.8 -8.7,9.4 -5.8,2.6 -14.1,3.9 -25,3.9 -9.1,0 -17.9,-0.6 -26.5,-1.9 -26.3,16.8 -39.4,35.8 -39.4,57 0,9.4 3.3,17.2 9.9,23.4 6.6,6.2 17.3,9.3 32,9.3 2.6,0 6.1,-0.1 10.5,-0.4 11.5,-0.9 19.2,-1.3 23.2,-1.3 12.1,0 20.9,3.9 26.4,11.7 5.5,7.8 8.2,17.5 8.2,29.2 0,16.4 -4.5,28.8 -13.5,37.3 -9,8.5 -19.1,12.8 -30.4,12.8 -6,0 -10.9,-1.2 -14.8,-3.7 -3.9,-2.4 -5.8,-5.8 -5.8,-10 0,-3 1,-5.4 3.1,-7.2 2,-1.8 4.4,-2.7 7,-2.7 1.8,0 4.3,0.5 7.6,1.6 6.2,2 11.1,3 14.8,3 6.8,0 12.1,-2.3 16,-7 3.9,-4.7 5.8,-10.6 5.8,-17.7 0,-5 -1.5,-9.4 -4.5,-13.2 -3,-3.8 -7.9,-5.8 -14.7,-5.8 -3,0 -6.6,0.1 -10.8,0.3 -12.5,0.7 -20.8,1 -25,1 -17.8,0 -31.9,-5.2 -42.5,-15.6 -10.6,-10.4 -15.9,-23.7 -15.9,-40 0,-25.5 14.1,-47 42.2,-64.2 C 98.2,91.5 93.1,82.3 93.1,71.9 93.1,62.1 97.4,52.4 106,42.7 91.9,39.3 84.8,32 84.8,21 84.8,8.7 93.3,2.4 110.4,2.1 Z"
   style="fill:#334155;fill-opacity:1" />
		<text
   transform="matrix(0,-1.0107,1,0,42.3403,282.1684)"
   class="st0 st1"
   id="text3081"
   style="fill:#334155;fill-opacity:1">powered by</text>
	</g>

</svg>
